<svg id="Layer_1" data-name="Layer 1" xmlns="http://www.w3.org/2000/svg" xmlns:xlink="http://www.w3.org/1999/xlink" viewBox="0 0 420.36 257.38"><defs><style>.cls-1{fill:none;}.cls-2{clip-path:url(#clip-path);}.cls-3,.cls-4{fill:#fff;}.cls-3{fill-rule:evenodd;}</style><clipPath id="clip-path" transform="translate(-9.68 -10.31)"><rect class="cls-1" x="0.68" y="0.69" width="439" height="276"/></clipPath></defs><g class="cls-2"><path class="cls-3" d="M304.25,15,262.17,57.09,220.09,99.17,178,57.09,135.92,99.17,178,141.25l42.08,42.07,42.08-42.07,42.08-42.08Zm-173-4.7L173.3,52.39,131.22,94.46Z" transform="translate(-9.68 -10.31)"/><path class="cls-4" d="M55.44,225.43h4.68v42.26H51.71V229.14h0a3.7,3.7,0,0,1,3.7-3.71m-14,0a3.85,3.85,0,0,0-4.11,3.18L29.06,257,18.28,225.4H9.68l15,42.29h8.45L47.51,225.4Zm22.86,42.29h8.41V239.46l16.81,28.23H98V225.4H89.54v28.23L72.73,225.4l-4.68,0a3.7,3.7,0,0,0-3.7,3.71h0Z" transform="translate(-9.68 -10.31)"/><path class="cls-4" d="M354.37,232.83H367v34.86h8.41V232.83H388V225.4H358.07a3.72,3.72,0,0,0-3.7,3.72v3.71m-33.49,27.92c-5.48,0-8.32-2.17-8.63-6.51h-8.32c.24,8.93,5.85,13.45,16.95,13.45,10.61,0,16.16-4,16.66-12q.36-7.78-6.66-10.14a94.61,94.61,0,0,0-10-2.83c-5.48-1.23-8.83-3.24-8.75-5.84.11-3.14,3-4.63,7.46-4.66,3.64,0,6.17,1.15,7.58,3.5a4,4,0,0,0,3.83,2.41h4.81c-.49-8.5-5.61-12.7-15.48-12.73-10.36,0-16.28,4-16.4,12.63-.07,5.43,4.69,9.31,12.88,11.38,3,.77,5.86,1.51,8.33,2.23s3.82,2.06,3.82,4.05C329,259.06,326.37,260.75,320.88,260.75Zm-30.23-22.47c0,4.1-2.24,5.59-6.23,5.59H274.5v-11h10.41C288.66,232.83,290.65,234.42,290.65,238.28Zm8.53-.81c0-8.71-4.72-12.07-13.25-12.07h-15.6a4.44,4.44,0,0,0-4.24,4.54v37.75h8.41V251.27h8.95c5,0,5.87,1.62,6.17,6.72a49.56,49.56,0,0,0,.37,7.15,6.43,6.43,0,0,0,.66,2.55h9.26a3.43,3.43,0,0,1-1.33-2.8l-.37-8.27a17,17,0,0,0-1.27-6.28,7.44,7.44,0,0,0-3.93-2.92C296.94,246.3,299.18,242.82,299.18,237.47Zm-42.84,8a3.57,3.57,0,0,1-3.57,3.46h-11.9v11h21v7.77H232.47V229.94c0-2.92,1.39-4.54,4.23-4.54h25.19v7.43h-21v9h15.58v3.59Zm89.14-20.08h4.69v42.26h-8.41V229.14h0A3.71,3.71,0,0,1,345.48,225.43ZM102.16,251.9c0,21.19,33.62,20.92,33.62,0V225.4h-8.4v25.53c0,12.41-16.82,12.25-16.82,0V225.4h-4.68a3.72,3.72,0,0,0-3.7,3.72h0ZM140,267.69h8.41V239.46l16.81,28.23h8.41V225.4h-8.41v28.23L148.4,225.4h-4.69a3.72,3.72,0,0,0-3.7,3.72h0Zm41.56-42.26h4.68v42.26h-8.41V229.14h0A3.71,3.71,0,0,1,181.55,225.43Zm40.66,0a3.85,3.85,0,0,0-4.11,3.18L209.81,257,199,225.4h-8.6l15,42.29h8.45l14.34-42.29Zm193.11,42.29v-15.8L430,225.4H423a4.14,4.14,0,0,0-4,2.55l-7.67,15.67-8.57-18.22H392.2l14.71,26.49v15.8Z" transform="translate(-9.68 -10.31)"/></g></svg>